<svg width="32" height="33" viewBox="0 0 32 33" fill="none" xmlns="http://www.w3.org/2000/svg">
<path fill-rule="evenodd" clip-rule="evenodd" d="M9.33333 4.69857C8.8029 4.69857 8.29419 4.90928 7.91912 5.28435C7.54405 5.65943 7.33333 6.16813 7.33333 6.69857V25.3652C7.33333 25.8957 7.54405 26.4044 7.91912 26.7794C8.29419 27.1545 8.8029 27.3652 9.33333 27.3652H22.6667C23.1971 27.3652 23.7058 27.1545 24.0809 26.7794C24.456 26.4044 24.6667 25.8957 24.6667 25.3652V12.584V12.584C24.6666 12.4073 24.5963 12.2377 24.4713 12.1127L17.2526 4.89397C17.1276 4.76897 16.9581 4.69864 16.7813 4.69857V4.69857H9.33333ZM6.97631 4.34154C7.60143 3.71642 8.44928 3.36523 9.33333 3.36523H16.7813C17.3117 3.36535 17.8204 3.57611 18.1954 3.95116M18.1954 3.95116L25.414 11.1698V11.1698C25.7891 11.5447 25.9999 12.0534 26 12.5838V25.3652C26 26.2493 25.6488 27.0971 25.0237 27.7223C24.3986 28.3474 23.5507 28.6986 22.6667 28.6986H9.33333C8.44928 28.6986 7.60143 28.3474 6.97631 27.7223C6.35119 27.0971 6 26.2493 6 25.3652V6.69857C6 5.81451 6.35119 4.96667 6.97631 4.34154" fill="#3F82EF"/>
<path fill-rule="evenodd" clip-rule="evenodd" d="M11.9193 17.2841V17.2841L7.33333 21.8701V22.9273C7.33333 23.2955 7.03486 23.594 6.66667 23.594C6.29848 23.594 6 23.2955 6 22.9273V21.594C6 21.4172 6.07024 21.2476 6.19526 21.1226L10.9766 16.3413C11.6017 15.7164 12.4495 15.3652 13.3333 15.3652C14.2172 15.3652 15.0649 15.7163 15.69 16.3412L18.6667 19.3179L20.3099 17.6746C20.935 17.0497 21.7828 16.6986 22.6667 16.6986C23.5505 16.6986 24.3982 17.0496 25.0233 17.6745L25.8047 18.4559C25.9298 18.581 26 18.7505 26 18.9273V20.2607C26 20.6289 25.7015 20.9273 25.3333 20.9273C24.9651 20.9273 24.6667 20.6289 24.6667 20.2607V19.2035L24.0807 18.6175V18.6175C23.7056 18.2426 23.197 18.0319 22.6667 18.0319C22.1364 18.0319 21.6278 18.2425 21.2527 18.6174V18.6174L19.6095 20.2607L21.8047 22.4559C22.0651 22.7163 22.0651 23.1384 21.8047 23.3987C21.5444 23.6591 21.1223 23.6591 20.8619 23.3987L14.7473 17.2841V17.2841C14.3723 16.9092 13.8636 16.6986 13.3333 16.6986C12.803 16.6986 12.2944 16.9092 11.9193 17.2841Z" fill="#3F82EF"/>
<path fill-rule="evenodd" clip-rule="evenodd" d="M18 13.3652C18 12.997 18.2985 12.6986 18.6667 12.6986H18.68C19.0482 12.6986 19.3467 12.997 19.3467 13.3652C19.3467 13.7334 19.0482 14.0319 18.68 14.0319H18.6667C18.2985 14.0319 18 13.7334 18 13.3652Z" fill="#3F82EF"/>
</svg>
