<svg width="32" height="33" viewBox="0 0 32 33" fill="none" xmlns="http://www.w3.org/2000/svg">
<path fill-rule="evenodd" clip-rule="evenodd" d="M9.33333 4.69857C8.8029 4.69857 8.29419 4.90928 7.91912 5.28435C7.54405 5.65943 7.33333 6.16813 7.33333 6.69857V25.3652C7.33333 25.8957 7.54405 26.4044 7.91912 26.7794C8.29419 27.1545 8.8029 27.3652 9.33333 27.3652H22.6667C23.1971 27.3652 23.7058 27.1545 24.0809 26.7794C24.456 26.4044 24.6667 25.8957 24.6667 25.3652V12.584V12.584C24.6666 12.4073 24.5963 12.2377 24.4713 12.1127L17.2526 4.89397C17.1276 4.76897 16.9581 4.69864 16.7813 4.69857V4.69857H9.33333ZM6.97631 4.34154C7.60143 3.71642 8.44928 3.36523 9.33333 3.36523H16.7813C17.3117 3.36535 17.8204 3.57611 18.1954 3.95116M18.1954 3.95116L25.414 11.1698V11.1698C25.7891 11.5447 25.9999 12.0534 26 12.5838V25.3652C26 26.2493 25.6488 27.0971 25.0237 27.7223C24.3986 28.3474 23.5507 28.6986 22.6667 28.6986H9.33333C8.44928 28.6986 7.60143 28.3474 6.97631 27.7223C6.35119 27.0971 6 26.2493 6 25.3652V6.69857C6 5.81451 6.35119 4.96667 6.97631 4.34154" fill="#E72A2A"/>
<path d="M13.5446 10.7019C12.8945 10.6905 12.3334 11.3371 12.4709 11.9831C12.5634 12.9702 13.1999 13.7712 13.6966 14.5863C13.7524 14.8897 13.5924 15.1853 13.5817 15.4867C13.2578 17.2557 12.7638 19.0153 12.0037 20.639C11.0633 21.0719 9.99836 21.4995 9.44827 22.4326C9.09915 23.0801 9.59072 23.9539 10.3123 24.0222C10.9817 24.1138 11.4786 23.5401 11.8446 23.0594C12.2267 22.5424 12.4781 21.9267 12.796 21.3711C14.7202 20.5962 16.744 20.0547 18.8103 19.8491C19.6458 20.447 20.531 21.1525 21.6022 21.1951C22.2249 21.1858 22.7288 20.5814 22.6604 19.9674C22.6203 19.4084 22.1237 19.0164 21.6093 18.9114C20.7795 18.6615 19.8908 18.7984 19.0468 18.8044C17.4226 17.5066 15.9231 16.0134 14.7421 14.3047C14.8298 13.266 15.0058 12.1171 14.4649 11.1721C14.2596 10.8741 13.9115 10.6699 13.5446 10.7019ZM13.5756 11.6452C13.7584 11.6804 13.7706 11.9528 13.8218 12.0985C13.87 12.3954 13.8648 12.6983 13.8612 12.9982C13.6434 12.5911 13.3605 12.1658 13.4109 11.6832C13.4683 11.6809 13.5192 11.6518 13.5756 11.6452ZM14.5831 15.6957C15.5512 16.8993 16.6264 18.0076 17.8 19.0128C16.2527 19.2488 14.7154 19.6441 13.2435 20.1772C13.8081 18.7015 14.238 17.177 14.5212 15.6211C14.5419 15.646 14.5625 15.6709 14.5831 15.6957ZM20.6214 19.7421C20.9967 19.7783 21.43 19.7566 21.7303 20.0152C21.7585 20.2487 21.4729 20.2828 21.3208 20.1983C21.0035 20.0923 20.6896 19.9591 20.4202 19.7562C20.4873 19.752 20.5542 19.7434 20.6214 19.7421ZM11.2424 22.1975C11.064 22.5295 10.8042 22.8424 10.5332 23.0775C10.443 23.2234 10.1956 22.9536 10.3095 22.8395C10.5446 22.4716 10.955 22.2765 11.3184 22.0567C11.2931 22.1037 11.2678 22.1506 11.2424 22.1975Z" fill="#E72A2A"/>
</svg>
