<svg width="32" height="33" viewBox="0 0 32 33" fill="none" xmlns="http://www.w3.org/2000/svg">
<path fill-rule="evenodd" clip-rule="evenodd" d="M9.33333 4.69857C8.8029 4.69857 8.29419 4.90928 7.91912 5.28435C7.54405 5.65943 7.33333 6.16813 7.33333 6.69857V25.3652C7.33333 25.8957 7.54405 26.4044 7.91912 26.7794C8.29419 27.1545 8.8029 27.3652 9.33333 27.3652H22.6667C23.1971 27.3652 23.7058 27.1545 24.0809 26.7794C24.456 26.4044 24.6667 25.8957 24.6667 25.3652V12.584C24.6666 12.4073 24.5963 12.2377 24.4713 12.1127L17.2526 4.89397C17.1276 4.76897 16.9581 4.69864 16.7813 4.69857H9.33333ZM6.97631 4.34154C7.60143 3.71642 8.44928 3.36523 9.33333 3.36523H16.7813C17.3117 3.36535 17.8204 3.57611 18.1954 3.95116M18.1954 3.95116L25.414 11.1698C25.7891 11.5447 25.9999 12.0534 26 12.5838V25.3652C26 26.2493 25.6488 27.0971 25.0237 27.7223C24.3986 28.3474 23.5507 28.6986 22.6667 28.6986H9.33333C8.44928 28.6986 7.60143 28.3474 6.97631 27.7223C6.35119 27.0971 6 26.2493 6 25.3652V6.69857C6 5.81451 6.35119 4.96667 6.97631 4.34154" fill="#34C759"/>
<path fill-rule="evenodd" clip-rule="evenodd" d="M9.96251 13.3277C10.3654 12.9249 10.9118 12.6986 11.4815 12.6986H16.5185C17.0882 12.6986 17.6346 12.9249 18.0375 13.3277C18.4403 13.7306 18.6667 14.277 18.6667 14.8467V15.1751L20.5955 14.0645C20.6069 14.058 20.6184 14.0518 20.6301 14.0459C20.8447 13.9387 21.083 13.8881 21.3226 13.8989C21.5622 13.9097 21.795 13.9815 21.999 14.1076C22.203 14.2336 22.3714 14.4097 22.4883 14.6191C22.6051 14.8285 22.6665 15.0643 22.6667 15.3041V20.3149C22.6665 20.5547 22.6051 20.7908 22.4883 21.0002C22.3714 21.2097 22.203 21.3857 21.999 21.5118C21.795 21.6378 21.5622 21.7097 21.3226 21.7204C21.083 21.7312 20.8447 21.6806 20.6301 21.5734C20.6184 21.5676 20.6069 21.5614 20.5955 21.5548L18.6667 20.4443V20.7726C18.6667 21.3424 18.4403 21.8888 18.0375 22.2916C17.6346 22.6945 17.0882 22.9208 16.5185 22.9208H11.4815C10.9118 22.9208 10.3654 22.6945 9.96251 22.2916C9.55966 21.8888 9.33334 21.3424 9.33334 20.7726V14.8467C9.33334 14.277 9.55966 13.7306 9.96251 13.3277ZM18.6667 18.9057L21.2349 20.3844C21.2437 20.3875 21.2532 20.3889 21.2626 20.3885C21.2752 20.3879 21.2875 20.3841 21.2982 20.3775C21.3089 20.3708 21.3178 20.3616 21.3239 20.3506C21.3301 20.3395 21.3333 20.3271 21.3333 20.3145V15.3048C21.3333 15.2922 21.3301 15.2798 21.3239 15.2688C21.3178 15.2578 21.3089 15.2485 21.2982 15.2419C21.2875 15.2352 21.2752 15.2315 21.2626 15.2309C21.2532 15.2305 21.2437 15.2319 21.2349 15.2349L18.6667 16.7136V18.9057ZM17.3333 14.8467C17.3333 14.6306 17.2475 14.4234 17.0947 14.2706C16.9419 14.1177 16.7346 14.0319 16.5185 14.0319H11.4815C11.2654 14.0319 11.0581 14.1177 10.9053 14.2706C10.7525 14.4234 10.6667 14.6306 10.6667 14.8467V20.7726C10.6667 20.9887 10.7525 21.196 10.9053 21.3488C11.0581 21.5016 11.2654 21.5875 11.4815 21.5875H16.5185C16.7346 21.5875 16.9419 21.5016 17.0947 21.3488C17.2475 21.196 17.3333 20.9887 17.3333 20.7726V14.8467Z" fill="#34C759"/>
</svg>
