<svg width="20" height="20" viewBox="0 0 20 20" fill="none" xmlns="http://www.w3.org/2000/svg">
<path d="M14.4766 1.00412C14.6436 1.01912 14.7166 1.22312 14.5966 1.34212L6.27663 9.66212C6.18264 9.75617 6.11534 9.87351 6.08163 10.0021L5.08163 13.8321C5.04862 13.9587 5.04928 14.0917 5.08356 14.2179C5.11784 14.3442 5.18453 14.4592 5.27702 14.5517C5.36952 14.6442 5.48459 14.7109 5.61082 14.7452C5.73706 14.7795 5.87006 14.7801 5.99663 14.7471L9.82563 13.7471C9.95435 13.7131 10.0717 13.6455 10.1656 13.5511L18.6036 5.11312C18.63 5.08602 18.6636 5.06705 18.7005 5.05846C18.7373 5.04986 18.7759 5.052 18.8115 5.06463C18.8472 5.07725 18.8785 5.09983 18.9017 5.12969C18.925 5.15956 18.9392 5.19545 18.9426 5.23312C19.2939 8.58274 19.2737 11.9609 18.8826 15.3061C18.6596 17.2111 17.1286 18.7061 15.2306 18.9191C11.7543 19.3043 8.246 19.3043 4.76963 18.9191C2.87063 18.7061 1.33963 17.2111 1.11663 15.3061C0.704613 11.7811 0.704613 8.22013 1.11663 4.69512C1.33963 2.78912 2.87063 1.29412 4.76963 1.08212C7.99414 0.724697 11.2468 0.69856 14.4766 1.00412Z" fill="#007CD8"/>
</svg>
