<svg width="16" height="17" viewBox="0 0 16 17" fill="none" xmlns="http://www.w3.org/2000/svg">
<path d="M8 16.0195C6.41775 16.0195 4.87103 15.5503 3.55544 14.6713C2.23985 13.7922 1.21447 12.5428 0.608967 11.081C0.00346626 9.61919 -0.15496 8.01066 0.153721 6.45881C0.462403 4.90696 1.22433 3.4815 2.34315 2.36268C3.46197 1.24386 4.88743 0.481934 6.43928 0.173253C7.99113 -0.135429 9.59966 0.0229975 11.0615 0.628498C12.5233 1.234 13.7727 2.25938 14.6518 3.57497C15.5308 4.89056 16 6.43728 16 8.01953C15.9979 10.1406 15.1543 12.1742 13.6545 13.674C12.1547 15.1739 10.1211 16.0174 8 16.0195ZM8 2.6862C6.94517 2.6862 5.91402 2.999 5.03696 3.58503C4.1599 4.17106 3.47631 5.00402 3.07265 5.97856C2.66898 6.95309 2.56336 8.02545 2.76915 9.06001C2.97494 10.0946 3.48289 11.0449 4.22877 11.7908C4.97465 12.5366 5.92496 13.0446 6.95952 13.2504C7.99409 13.4562 9.06644 13.3506 10.041 12.9469C11.0155 12.5432 11.8485 11.8596 12.4345 10.9826C13.0205 10.1055 13.3333 9.07437 13.3333 8.01953C13.3333 6.60505 12.7714 5.24849 11.7712 4.2483C10.771 3.2481 9.41449 2.6862 8 2.6862Z" fill="#A1A5C6"/>
<path d="M11.3359 8.6862H8.0026C7.82579 8.6862 7.65622 8.61596 7.5312 8.49094C7.40618 8.36591 7.33594 8.19634 7.33594 8.01953V4.6862C7.33594 4.50939 7.40618 4.33982 7.5312 4.21479C7.65622 4.08977 7.82579 4.01953 8.0026 4.01953C8.17941 4.01953 8.34898 4.08977 8.474 4.21479C8.59903 4.33982 8.66926 4.50939 8.66926 4.6862V7.35286H11.3359C11.5127 7.35286 11.6823 7.4231 11.8073 7.54813C11.9323 7.67315 12.0026 7.84272 12.0026 8.01953C12.0026 8.19634 11.9323 8.36591 11.8073 8.49094C11.6823 8.61596 11.5127 8.6862 11.3359 8.6862Z" fill="#A1A5C6"/>
</svg>
