<svg width="25" height="25" viewBox="0 0 25 25" fill="none" xmlns="http://www.w3.org/2000/svg">
<path d="M7.52453 7.0918H6.51114C5.97361 7.0918 5.45809 7.30533 5.078 7.68542C4.69791 8.06552 4.48438 8.58103 4.48438 9.11857V18.239C4.48438 18.7766 4.69791 19.2921 5.078 19.6722C5.45809 20.0523 5.97361 20.2658 6.51114 20.2658H15.6316C16.1691 20.2658 16.6847 20.0523 17.0647 19.6722C17.4448 19.2921 17.6584 18.7766 17.6584 18.239V17.2256" stroke="#425ED9" stroke-width="2" stroke-linecap="round" stroke-linejoin="round"/>
<path d="M16.6406 5.06594L19.6807 8.10609M21.0843 6.67215C21.4834 6.27304 21.7076 5.73172 21.7076 5.16728C21.7076 4.60284 21.4834 4.06152 21.0843 3.6624C20.6851 3.26328 20.1438 3.03906 19.5794 3.03906C19.0149 3.03906 18.4736 3.26328 18.0745 3.6624L9.54688 12.1596V15.1998H12.587L21.0843 6.67215Z" stroke="#425ED9" stroke-width="2" stroke-linecap="round" stroke-linejoin="round"/>
</svg>
