<svg width="15" height="5" viewBox="0 0 15 5" fill="none" xmlns="http://www.w3.org/2000/svg">
<path d="M14.4857 1.26257C13.8 0.579152 12.6882 0.579152 12.0025 1.26257C11.3168 1.94598 11.3168 3.05402 12.0025 3.73744C12.6882 4.42085 13.8 4.42085 14.4857 3.73744C15.1714 3.05405 15.1714 1.94601 14.4857 1.26257Z" fill="#605BFF"/>
<path d="M9.21814 1.26257C8.53242 0.579152 7.42065 0.579152 6.73494 1.26257C6.04922 1.94598 6.04922 3.05402 6.73494 3.73744C7.42065 4.42085 8.53242 4.42085 9.21814 3.73744C9.90385 3.05405 9.90385 1.94601 9.21814 1.26257Z" fill="#605BFF"/>
<path d="M3.94958 1.26257C3.26386 0.579152 2.15209 0.579152 1.46638 1.26257C0.780661 1.94598 0.780661 3.05402 1.46638 3.73744C2.15209 4.42085 3.26386 4.42085 3.94958 3.73744C4.6353 3.05405 4.6353 1.94601 3.94958 1.26257Z" fill="#605BFF"/>
</svg>
