<svg width="16" height="20" viewBox="0 0 16 20" fill="none" xmlns="http://www.w3.org/2000/svg">
<path d="M15.0264 15.29L13.7818 14V9C13.7818 5.93 12.1995 3.36 9.44028 2.68V2C9.44028 1.17 8.79388 0.5 7.99311 0.5C7.19234 0.5 6.54594 1.17 6.54594 2V2.68C3.77702 3.36 2.20443 5.92 2.20443 9V14L0.959863 15.29C0.352052 15.92 0.776555 17 1.63521 17H14.3414C15.2097 17 15.6342 15.92 15.0264 15.29ZM11.8522 15H4.13399V9C4.13399 6.52 5.59081 4.5 7.99311 4.5C10.3954 4.5 11.8522 6.52 11.8522 9V15ZM7.99311 20C9.05437 20 9.92267 19.1 9.92267 18H6.06355C6.06355 19.1 6.9222 20 7.99311 20Z" fill="#A3AED0"/>
</svg>
